<?xml version="1.0" standalone="no"?>
<!DOCTYPE svg PUBLIC "-//W3C//DTD SVG 20010904//EN"
 "http://www.w3.org/TR/2001/REC-SVG-20010904/DTD/svg10.dtd">
<svg version="1.0" xmlns="http://www.w3.org/2000/svg"
 width="798.000000pt" height="798.000000pt" viewBox="0 0 798.000000 798.000000"
 preserveAspectRatio="xMidYMid meet">
<metadata>
Created by potrace 1.11, written by Peter Selinger 2001-2013
</metadata>
<g transform="translate(0.000000,798.000000) scale(0.100000,-0.100000)"
fill="#000000" stroke="none">
<path d="M621 7925 c-290 -75 -526 -315 -601 -610 -20 -80 -20 -99 -18 -2665
l3 -2585 22 -68 c62 -192 171 -347 319 -452 81 -58 149 -89 250 -115 76 -20
120 -21 1094 -30 558 -5 1095 -9 1192 -10 l176 0 13 38 c30 95 117 243 190
325 34 39 38 49 29 67 -11 20 -15 20 -1108 20 -643 0 -1143 4 -1209 10 -278
25 -441 153 -503 396 -20 76 -20 118 -20 2056 l0 1978 2535 0 c2791 0 2586 -5
2599 61 3 17 6 143 6 280 0 248 0 248 24 276 l24 28 715 0 c689 0 716 -1 736
-19 20 -18 21 -27 21 -281 0 -270 6 -317 40 -335 10 -6 100 -10 200 -10 l180
0 -3 -2002 c-2 -1838 -4 -2007 -19 -2057 -54 -173 -154 -284 -315 -349 l-68
-27 -1209 -5 c-1371 -6 -1266 2 -1181 -86 67 -69 139 -181 174 -274 17 -44 31
-84 31 -90 0 -7 341 -10 1148 -7 1136 3 1148 3 1227 24 350 94 589 355 647
706 9 54 12 700 12 2607 1 2399 0 2538 -17 2600 -40 146 -128 291 -239 395
-107 101 -208 160 -358 209 l-65 21 -3290 2 -3290 2 -94 -24z m1363 -560 c112
-29 192 -109 221 -221 19 -74 19 -115 0 -189 -30 -117 -115 -209 -218 -240
-157 -47 -317 18 -386 156 -28 56 -31 71 -31 154 0 103 13 152 60 220 76 111
212 157 354 120z m-981 -35 c57 -28 126 -99 158 -161 33 -65 39 -199 11 -262
-29 -65 -104 -142 -171 -174 -49 -24 -68 -28 -146 -28 -75 0 -98 4 -135 24
-62 32 -127 96 -157 156 -32 60 -43 180 -23 241 31 94 107 175 204 216 62 27
196 21 259 -12z m2011 10 c120 -46 204 -162 213 -299 5 -70 3 -84 -22 -139
-32 -72 -102 -143 -173 -175 -68 -32 -208 -31 -273 1 -67 33 -121 83 -154 143
-25 46 -30 68 -33 146 -4 82 -2 97 22 150 34 72 109 145 179 172 70 27 170 27
241 1z"/>
<path d="M3741 5205 c-266 -313 -321 -386 -398 -540 -94 -186 -151 -389 -169
-605 -7 -85 8 -352 33 -578 l17 -153 -311 -312 c-265 -265 -312 -317 -318
-348 -8 -42 13 -91 48 -113 33 -22 340 -102 537 -141 96 -19 191 -38 210 -42
l34 -8 47 -156 c62 -207 72 -226 146 -263 28 -14 78 -16 365 -16 327 0 334 1
373 23 22 12 50 37 62 56 23 34 95 244 108 314 4 20 11 40 16 42 4 3 57 14
118 25 218 40 650 148 677 170 39 33 55 100 33 143 -6 12 -146 158 -312 324
l-300 301 21 229 c12 125 24 271 27 323 6 108 -8 295 -31 409 -38 189 -133
406 -244 562 -70 98 -530 629 -544 629 -6 0 -116 -124 -245 -275z"/>
<path d="M3604 1628 c-94 -64 -169 -157 -215 -267 -93 -224 -74 -383 87 -711
94 -190 114 -239 114 -277 0 -38 22 -15 55 58 32 72 34 140 10 300 -16 108
-19 177 -9 203 9 23 47 20 70 -6 63 -71 80 -169 71 -412 -9 -247 18 -340 128
-449 l50 -49 6 78 c14 182 105 423 186 494 39 35 89 40 123 12 19 -15 23 -32
30 -126 8 -89 14 -119 41 -174 26 -57 32 -64 39 -47 70 171 192 485 208 535
52 161 67 366 38 494 -25 106 -79 201 -160 281 -39 39 -86 78 -103 88 l-33 18
12 -28 c6 -15 11 -68 11 -118 1 -141 -53 -255 -121 -255 -33 0 -51 18 -77 78
-19 45 -70 95 -89 89 -25 -8 -16 -68 27 -183 82 -221 93 -316 52 -436 -21 -60
-45 -64 -64 -10 -24 66 -90 148 -191 235 -54 47 -112 106 -130 131 -72 106
-114 298 -93 432 6 38 9 70 8 72 -2 2 -38 -21 -81 -50z"/>
</g>
</svg>
