
		<svg xmlns="http://www.w3.org/2000/svg" xmlns:xlink="http://www.w3.org/1999/xlink" version="1.1" width="2752.6315789473683" height="3105.2631578947367">
			
			<g transform="scale(5.2631578947368425) translate(10, 10)">
				<defs id="SvgjsDefs7798"/><g id="SvgjsG7799" transform="translate(0.000007358045877481345, 0.004173705354332924) scale(10.136878472222222)" feature="container" rel="inversefill" name="filled_container" xmlns:name="filledContainer_inversefill" fill="#000">   <title xmlns="http://www.w3.org/2000/svg">Untitled-1</title>   <path xmlns="http://www.w3.org/2000/svg" d="M23.11,55.78L1.69,43.41A3.39,3.39,0,0,1,0,40.48V15.75a3.39,3.39,0,0,1,1.69-2.94L23.11,0.45a3.39,3.39,0,0,1,3.39,0L47.91,12.82a3.39,3.39,0,0,1,1.69,2.94V40.48a3.39,3.39,0,0,1-1.69,2.94L26.5,55.78A3.39,3.39,0,0,1,23.11,55.78Z"/> </g><g id="main_text" rel="mainfill" name="main_text" feature="main_text" xmlns:name="mainText_mainfill" groupName="main_text" fill="#fff" transform="translate(122.10139944969671, 244.7642999122628) scale(6.12325470259775)"><path d="M9.16 23.82 c0.02 0.08 0.04 0.18 -0.06 0.18 l-2.2 0 c-0.22 0 -0.36 -0.2 -0.36 -0.48 l0 -0.48 c-0.42 0.6 -1.02 1.06 -1.9 1.06 l-0.54 0 c-1.88 0 -3.3 -1.16 -3.3 -3.16 s1.1 -2.92 3.26 -2.92 l2.48 0 l0 -0.86 c0 -0.76 -0.34 -0.94 -1.12 -0.94 l-0.6 0 c-1.02 0 -1.78 0.28 -2.12 0.42 c-0.36 0.12 -0.6 0.1 -0.74 -0.2 l-0.48 -1.16 c-0.08 -0.2 -0.1 -0.38 0.1 -0.5 c0.84 -0.52 2.14 -0.86 3.24 -0.86 l0.6 0 c2.48 0 3.7 1.1 3.7 3.38 l0 6.22 c0 0.1 0.02 0.22 0.04 0.3 z M5.22 21.8 c0.84 0 1.16 -0.26 1.32 -0.58 l0 -1.22 l-2.44 0 c-0.4 0 -0.74 0.2 -0.74 0.9 c0 0.66 0.34 0.9 0.74 0.9 l1.12 0 z M16.299999999999997 13.92 c2.22 0 3.5 1.54 3.5 3.62 l0 3 c0 2.08 -1.28 3.56 -3.5 3.56 l-0.46 0 c-0.88 0 -1.44 -0.4 -1.78 -0.92 l0 4.52 c0 0.2 -0.16 0.3 -0.28 0.3 l-2 0 c-0.2 0 -0.3 -0.1 -0.3 -0.3 l0 -13.4 c0 -0.2 0.1 -0.3 0.3 -0.3 l2 0 c0.12 0 0.28 0.1 0.28 0.3 l0 0.48 c0.34 -0.5 0.9 -0.86 1.78 -0.86 l0.46 0 z M17.22 20.82 l0 -3.66 c0 -0.7 -0.4 -0.94 -0.94 -0.94 l-1.28 0 c-0.54 0 -0.94 0.24 -0.94 0.94 l0 3.66 c0 0.7 0.4 0.98 0.94 0.98 l1.28 0 c0.54 0 0.94 -0.28 0.94 -0.98 z M26.72 13.92 c2.22 0 3.5 1.54 3.5 3.62 l0 3 c0 2.08 -1.28 3.56 -3.5 3.56 l-0.46 0 c-0.88 0 -1.44 -0.4 -1.78 -0.92 l0 4.52 c0 0.2 -0.16 0.3 -0.28 0.3 l-2 0 c-0.2 0 -0.3 -0.1 -0.3 -0.3 l0 -13.4 c0 -0.2 0.1 -0.3 0.3 -0.3 l2 0 c0.12 0 0.28 0.1 0.28 0.3 l0 0.48 c0.34 -0.5 0.9 -0.86 1.78 -0.86 l0.46 0 z M27.64 20.82 l0 -3.66 c0 -0.7 -0.4 -0.94 -0.94 -0.94 l-1.28 0 c-0.54 0 -0.94 0.24 -0.94 0.94 l0 3.66 c0 0.7 0.4 0.98 0.94 0.98 l1.28 0 c0.54 0 0.94 -0.28 0.94 -0.98 z M41.18 14 c0.22 0 0.24 0.16 0.16 0.36 l-5.34 13.3 c-0.12 0.28 -0.28 0.34 -0.44 0.34 l-1.96 0 c-0.24 0 -0.28 -0.16 -0.2 -0.36 l1.78 -4.44 l-3.52 -8.84 c-0.08 -0.2 -0.04 -0.36 0.18 -0.36 l2 0 c0.16 0 0.32 0.06 0.42 0.34 l2.18 5.72 l2.3 -5.72 c0.12 -0.28 0.28 -0.34 0.44 -0.34 l2 0 z"/></g><g id="slogan_text" rel="mainfill" name="slogan_text" feature="slogan_text" xmlns:name="sloganText_mainfill" groupName="slogan_text" fill="#fff" transform="translate(132.03999977111818, 428.48800201416014) scale(1.2)"><path d="M3.38 17.5 l4.92 0 l0 -5 l-3.92 0 q-0.4 0 -0.7 0.3 t-0.3 0.7 l0 4 z M3.38 20 l-2.58 0 l0 -13.74 l2.58 0 l0 4.76 q0 -0.42 0.3 -0.72 t0.7 -0.3 l5.5 0 q0.42 0 0.71 0.3 t0.29 0.7 l0 8 q0 0.42 -0.29 0.71 t-0.71 0.29 l-5.5 0 q-0.4 0 -0.7 -0.29 t-0.3 -0.71 l0 1 z M20.78 12.5 l-4.92 0 l0 5 l4.92 0 l0 -5 z M23.36 19 q0 0.42 -0.29 0.71 t-0.71 0.29 l-8.08 0 q-0.42 0 -0.71 -0.29 t-0.29 -0.71 l0 -7.98 q0 -0.42 0.29 -0.72 t0.71 -0.3 l8.08 0 q0.42 0 0.71 0.3 t0.29 0.7 l0 8 z M33.260000000000005 12.5 l-4.92 0 l0 5 l4.92 0 l0 -5 z M35.84 19 q0 0.42 -0.29 0.71 t-0.71 0.29 l-8.08 0 q-0.42 0 -0.71 -0.29 t-0.29 -0.71 l0 -7.98 q0 -0.42 0.29 -0.72 t0.71 -0.3 l8.08 0 q0.42 0 0.71 0.3 t0.29 0.7 l0 8 z M41.28 6.26 l0 3.74 l1.76 0 l0 2.5 l-1.76 0 l0 5 l1.76 0 l0 2.5 l-3.36 0 q-0.4 0 -0.7 -0.29 t-0.3 -0.69 l0 -6.52 l-1.24 0 l0 -2.5 l1.24 0 l0 -3.74 l2.6 0 z M46.03999999999999 20 q-0.42 0 -0.71 -0.29 t-0.29 -0.71 l0 -2.12 l2.58 0 l0 0.62 l4.92 0 l0 -1.24 l-6.5 0 q-0.42 0 -0.71 -0.3 t-0.29 -0.7 l0 -4.26 q0 -0.4 0.29 -0.7 t0.71 -0.3 l1.58 0 l6.5 0 q0.42 0 0.71 0.3 t0.29 0.7 l0 2.14 l-2.58 0 l0 -0.64 l-4.92 0 l0 1.26 l6.5 0 q0.42 0 0.71 0.29 t0.29 0.69 l0 4.28 q0 0.4 -0.29 0.69 t-0.71 0.29 l-8.08 0 z M60.56 6.26 l0 3.74 l1.76 0 l0 2.5 l-1.76 0 l0 5 l1.76 0 l0 2.5 l-3.36 0 q-0.4 0 -0.7 -0.29 t-0.3 -0.69 l0 -6.52 l-1.24 0 l0 -2.5 l1.24 0 l0 -3.74 l2.6 0 z M66.89999999999999 20 l-2.58 0 l0 -10 l2.58 0 l0 1 q0 -0.42 0.3 -0.71 t0.7 -0.29 l2.92 0 q0.42 0 0.71 0.29 t0.29 0.71 l0 2.12 l-2.58 0 l0 -0.62 l-1.36 0 q-0.4 0 -0.69 0.29 t-0.29 0.71 l0 6.5 z M74.8 20 q-0.4 0 -0.69 -0.29 t-0.29 -0.71 l0 -4.24 q0 -0.42 0.29 -0.71 t0.71 -0.29 l6.5 0 l0 -1.26 l-4.92 0 l0 0.62 l-2.58 0 l0 -2.12 q0 -0.42 0.29 -0.71 t0.71 -0.29 l8.08 0 q0.42 0 0.71 0.29 t0.29 0.71 l0 9 l-2.58 0 l0 -1 q0 0.42 -0.29 0.71 t-0.71 0.29 l-5.52 0 z M81.32 17.5 l0 -1.24 l-4.92 0 l0 1.24 l4.92 0 z M88.88 11 q0 -0.42 0.3 -0.71 t0.7 -0.29 l5.5 0 q0.42 0 0.71 0.29 t0.29 0.71 l0 8 q0 0.4 -0.29 0.7 t-0.71 0.3 l-5.5 0 q-0.4 0 -0.7 -0.3 t-0.3 -0.7 l0 4.74 l-2.58 0 l0 -13.74 l2.58 0 l0 1 z M89.88 12.5 q-0.4 0 -0.7 0.29 t-0.3 0.71 l0 4 l4.92 0 l0 -5 l-3.92 0 z  M112.42 16.240000000000002 l2.3 -6.24 l2.74 0 l-4.82 13.08 q-0.14 0.3 -0.4 0.48 t-0.6 0.18 l-2 0 l0 -2.5 l0.9 0 l0.52 -1.42 l-3.68 -9.82 l2.7 0 z M125.96 12.5 l-4.92 0 l0 5 l4.92 0 l0 -5 z M128.54 19 q0 0.42 -0.29 0.71 t-0.71 0.29 l-8.08 0 q-0.42 0 -0.71 -0.29 t-0.29 -0.71 l0 -7.98 q0 -0.42 0.29 -0.72 t0.71 -0.3 l8.08 0 q0.42 0 0.71 0.3 t0.29 0.7 l0 8 z M137.6 10 l2.58 0 l0 10 l-2.58 0 l0 -1 q0 0.42 -0.3 0.71 t-0.72 0.29 l-4.64 0 q-0.42 0 -0.71 -0.29 t-0.29 -0.71 l0 -9 l2.58 0 l0 7.5 l3.06 0 q0.42 0 0.72 -0.29 t0.3 -0.71 l0 -6.5 z M145.15999999999997 20 l-2.58 0 l0 -10 l2.58 0 l0 1 q0 -0.42 0.3 -0.71 t0.7 -0.29 l2.92 0 q0.42 0 0.71 0.29 t0.29 0.71 l0 2.12 l-2.58 0 l0 -0.62 l-1.36 0 q-0.4 0 -0.69 0.29 t-0.29 0.71 l0 6.5 z  M163.05999999999997 20 q-0.4 0 -0.69 -0.29 t-0.29 -0.71 l0 -4.24 q0 -0.42 0.29 -0.71 t0.71 -0.29 l6.5 0 l0 -1.26 l-4.92 0 l0 0.62 l-2.58 0 l0 -2.12 q0 -0.42 0.29 -0.71 t0.71 -0.29 l8.08 0 q0.42 0 0.71 0.29 t0.29 0.71 l0 9 l-2.58 0 l0 -1 q0 0.42 -0.29 0.71 t-0.71 0.29 l-5.52 0 z M169.57999999999998 17.5 l0 -1.24 l-4.92 0 l0 1.24 l4.92 0 z M177.13999999999996 11 q0 -0.42 0.3 -0.71 t0.7 -0.29 l5.5 0 q0.42 0 0.71 0.29 t0.29 0.71 l0 8 q0 0.4 -0.29 0.7 t-0.71 0.3 l-5.5 0 q-0.4 0 -0.7 -0.3 t-0.3 -0.7 l0 4.74 l-2.58 0 l0 -13.74 l2.58 0 l0 1 z M178.13999999999996 12.5 q-0.4 0 -0.7 0.29 t-0.3 0.71 l0 4 l4.92 0 l0 -5 l-3.92 0 z M189.61999999999995 11 q0 -0.42 0.3 -0.71 t0.7 -0.29 l5.5 0 q0.42 0 0.71 0.29 t0.29 0.71 l0 8 q0 0.4 -0.29 0.7 t-0.71 0.3 l-5.5 0 q-0.4 0 -0.7 -0.3 t-0.3 -0.7 l0 4.74 l-2.58 0 l0 -13.74 l2.58 0 l0 1 z M190.61999999999995 12.5 q-0.4 0 -0.7 0.29 t-0.3 0.71 l0 4 l4.92 0 l0 -5 l-3.92 0 z"/></g><g id="SvgjsG7802" rel="mainfill" name="symbol" feature="symbol" xmlns:name="symbol_mainfill" fill="#fff" transform="translate(159.86458333333334, 125.43750006788306) scale(1.4236111111111112)"><g><g><g><path d="M113.5,1.8h-99c-7.1,0-13,5.9-13,13v76.7c0,6.3,4.7,12.1,11.1,12.7c1.4,0.1,19.2,0.2,36.9,0.3c0.8-2.5,2.2-4.8,4-6.5     c-0.2-0.2-0.4-0.5-0.6-0.8H18.2c-6.1,0-9.5-3.2-9.5-9.5V28.1h77.9c2.4,0,2.4,0,2.4-2.4V20c0-1.4,0.4-2,1.8-2h20     c1.6,0,2,0.6,1.8,2v6.5c0,1.2,0.4,1.8,1.6,1.6h4.9v61.1c-0.4,5.1-3.6,8.1-8.7,8.1H75.1c-0.2,0.2-0.3,0.5-0.5,0.7     c2,1.7,3.4,3.9,4.1,6.6h18.1c5.7,0,11.3,0.2,16.6,0c7.3-0.4,12.8-6.1,12.8-13.2c0.2-27.9,0.2-48.4,0.2-76.3     C126.6,7.9,120.6,2,113.5,1.8z M15.1,21.4c-2.8,0-5.1-2.4-5.1-5.1s2.4-5.1,5.1-5.1s5.1,2.6,5.1,5.1     C20.4,18.8,17.8,21.4,15.1,21.4z M31.1,21.4c-2.8,0-5.1-2.4-4.9-5.3c0-2.8,2.4-5.1,4.9-5.1c3,0,5.1,2.2,5.1,5.1     C36,19.2,33.9,21.4,31.1,21.4z M46.9,21.4c-2.8,0-5.1-2.4-5.1-5.1s2.4-5.1,5.1-5.1s5.1,2.6,5.1,5.1     C52.2,18.8,49.7,21.4,46.9,21.4z"/></g></g><g><g><path d="M85.3,83.3L76,74c0.5-3.8,0.8-7.4,0.8-10.2v-0.1c0-5.7-2.1-11.2-5.9-15.5l-6.5-7.5c0-0.1-0.1-0.1-0.2-0.2     c-0.1-0.1-0.2-0.1-0.3-0.1c-0.1,0-0.2,0-0.3,0.1c-0.1,0-0.1,0.1-0.2,0.2L57,48.2c-3.7,4.3-5.8,9.8-5.9,15.5v0.1     c0,2.8,0.3,6.4,0.8,10.2l-9.3,9.3c-1.3,1.3-0.4,3.4,1.4,3.4c3.6,1.1,7.3,1.9,11,2.5c0.5,1.7,1,3.4,1.5,5c0.4,1.2,1.5,1.9,2.7,1.9     h9.2c1.2,0,2.3-0.8,2.7-1.9c0.6-1.6,1.1-3.2,1.5-5c3.7-0.6,7.3-1.4,11-2.5C85.6,86.7,86.5,84.5,85.3,83.3z"/><path d="M74.2,111.1c-0.1,0.2-0.1,0.5-0.1,0.7c-0.7,3.8-2.9,7.3-3.9,11c-0.9-1.2-1.4-2.7-1.4-4.2c0-0.6,0.1-1.4-0.4-1.8     c-2.4-2.3-5.3,7.4-4.6,9.2c0,0.1,0,0.1,0.1,0.1c-2.7-1.4-3.7-4.7-3.2-7.6c0.2-1.4,0.1-2.8-0.1-4.3c0-0.1,0-0.1,0-0.1     c0-0.1,0-0.3-0.1-0.4c0-0.1-0.1-0.1-0.1-0.2c0,0,0,0,0.1,0c-0.1-0.3-0.1-0.6-0.2-0.8c0,0-0.1-0.1-0.1-0.1     c-0.1-0.2-0.2-0.3-0.3-0.5l-0.1-0.1c0-0.1-0.1-0.1-0.1-0.1c-0.1-0.2-0.2-0.3-0.3-0.4c0,0-0.1-0.1-0.1-0.1     c-1.2-0.4-0.6,2.2-0.5,2.8c0.1,0.8,0.2,1.6,0.3,2.5c0,0.4,0.1,0.9,0,1.3c-0.1,1.4-1.4,3.3-1.4,2.9c-0.1-2.1-1.6-4-2.4-5.8     c-1-2.1-1.9-4.7-1.7-7.1c0.2-2.6,1.7-5.7,3.8-7.2c0.7-0.5,1.4-0.9,2.2-1.2c0.1,0,0.1-0.1,0.1-0.1h0.1c-0.8,0.7-0.7,2.4-0.7,3.3     c0.1,1.8,0.6,3.6,1.7,5.1c0.7,0.9,1.8,1.7,2.7,2.5c0.3,0.2,0.5,0.5,0.7,0.7c0.1,0.1,0.1,0.1,0.1,0.1c0.7,0.8,1.3,1.7,1.6,2.9     c0.1,0.4,1.1-1.9,0.9-3.5c-0.2-1.4-0.7-2.7-1.2-4c-0.2-0.5-1.4-3.3-0.1-3.1c0.2,0.1,0.5,0.2,0.6,0.4c0.5,0.5,0.8,1,1,1.7     c0.2,0.6,1,0.7,1.4,0.3c0.1-0.1,0.2-0.2,0.2-0.3c0.5-0.6,0.7-1.3,0.9-2c0.2-0.9,0.2-1.7,0-2.6c-0.1-0.4-0.2-0.8-0.4-1.2     c0.2,0.1,0.5,0.2,0.7,0.3c0.2,0.1,0.3,0.2,0.5,0.3C74.2,103.1,74.9,107.2,74.2,111.1z"/></g></g></g></g>
			</g>
		</svg>
	