<?xml version="1.0" encoding="UTF-8" standalone="no"?>
<svg
   xmlns:dc="http://purl.org/dc/elements/1.1/"
   xmlns:cc="http://creativecommons.org/ns#"
   xmlns:rdf="http://www.w3.org/1999/02/22-rdf-syntax-ns#"
   xmlns:svg="http://www.w3.org/2000/svg"
   xmlns="http://www.w3.org/2000/svg"
   xmlns:sodipodi="http://sodipodi.sourceforge.net/DTD/sodipodi-0.dtd"
   xmlns:inkscape="http://www.inkscape.org/namespaces/inkscape"
   version="1.1"
   width="100%"
   height="100%"
   id="svg3939"
   inkscape:version="0.91 r13725"
   sodipodi:docname="white_logo_icon.svg"
   xml:space="preserve"
   style="fill-rule:evenodd;clip-rule:evenodd;stroke-linejoin:round;stroke-miterlimit:1.41421;"
   viewBox="0 0 125 125">
  <metadata
     id="metadata3976">
    <rdf:RDF>
      <cc:Work
         rdf:about="">
        <dc:format>image/svg+xml</dc:format>
        <dc:type
           rdf:resource="http://purl.org/dc/dcmitype/StillImage" />
        <dc:title></dc:title>
      </cc:Work>
    </rdf:RDF>
  </metadata>
  <defs
     id="defs3974" />
  <g
     id="g3941">
    <defs
       id="SvgjsDefs7798" />
    <g
       id="SvgjsG7802"
       rel="mainfill"
       name="symbol"
       feature="symbol"
       style="fill:#ffffff">
      <g
         id="g3956">
        <g
           id="g3958">
          <g
             id="g3960">
            <path
               d="m 113.5,1.8 -99,0 c -7.1,0 -13,5.9 -13,13 l 0,76.7 c 0,6.3 4.7,12.1 11.1,12.7 1.4,0.1 19.2,0.2 36.9,0.3 0.8,-2.5 2.2,-4.8 4,-6.5 -0.2,-0.2 -0.4,-0.5 -0.6,-0.8 l -34.7,0 C 12.1,97.2 8.7,94 8.7,87.7 l 0,-59.6 77.9,0 c 2.4,0 2.4,0 2.4,-2.4 L 89,20 c 0,-1.4 0.4,-2 1.8,-2 l 20,0 c 1.6,0 2,0.6 1.8,2 l 0,6.5 c 0,1.2 0.4,1.8 1.6,1.6 l 4.9,0 0,61.1 c -0.4,5.1 -3.6,8.1 -8.7,8.1 l -35.3,0 c -0.2,0.2 -0.3,0.5 -0.5,0.7 2,1.7 3.4,3.9 4.1,6.6 l 18.1,0 c 5.7,0 11.3,0.2 16.6,0 7.3,-0.4 12.8,-6.1 12.8,-13.2 0.2,-27.9 0.2,-48.4 0.2,-76.3 C 126.6,7.9 120.6,2 113.5,1.8 Z M 15.1,21.4 C 12.3,21.4 10,19 10,16.3 c 0,-2.7 2.4,-5.1 5.1,-5.1 2.7,0 5.1,2.6 5.1,5.1 0.2,2.5 -2.4,5.1 -5.1,5.1 z m 16,0 c -2.8,0 -5.1,-2.4 -4.9,-5.3 0,-2.8 2.4,-5.1 4.9,-5.1 3,0 5.1,2.2 5.1,5.1 -0.2,3.1 -2.3,5.3 -5.1,5.3 z m 15.8,0 c -2.8,0 -5.1,-2.4 -5.1,-5.1 0,-2.7 2.4,-5.1 5.1,-5.1 2.7,0 5.1,2.6 5.1,5.1 0.2,2.5 -2.3,5.1 -5.1,5.1 z"
               id="path3962"
               inkscape:connector-curvature="0" />
          </g>
        </g>
        <g
           id="g3964">
          <g
             id="g3966">
            <path
               d="M 85.3,83.3 76,74 c 0.5,-3.8 0.8,-7.4 0.8,-10.2 l 0,-0.1 C 76.8,58 74.7,52.5 70.9,48.2 l -6.5,-7.5 c 0,-0.1 -0.1,-0.1 -0.2,-0.2 -0.1,-0.1 -0.2,-0.1 -0.3,-0.1 -0.1,0 -0.2,0 -0.3,0.1 -0.1,0 -0.1,0.1 -0.2,0.2 L 57,48.2 c -3.7,4.3 -5.8,9.8 -5.9,15.5 l 0,0.1 c 0,2.8 0.3,6.4 0.8,10.2 l -9.3,9.3 c -1.3,1.3 -0.4,3.4 1.4,3.4 3.6,1.1 7.3,1.9 11,2.5 0.5,1.7 1,3.4 1.5,5 0.4,1.2 1.5,1.9 2.7,1.9 l 9.2,0 c 1.2,0 2.3,-0.8 2.7,-1.9 0.6,-1.6 1.1,-3.2 1.5,-5 3.7,-0.6 7.3,-1.4 11,-2.5 2,0 2.9,-2.2 1.7,-3.4 z"
               id="path3968"
               inkscape:connector-curvature="0" />
            <path
               d="m 74.2,111.1 c -0.1,0.2 -0.1,0.5 -0.1,0.7 -0.7,3.8 -2.9,7.3 -3.9,11 -0.9,-1.2 -1.4,-2.7 -1.4,-4.2 0,-0.6 0.1,-1.4 -0.4,-1.8 -2.4,-2.3 -5.3,7.4 -4.6,9.2 0,0.1 0,0.1 0.1,0.1 -2.7,-1.4 -3.7,-4.7 -3.2,-7.6 0.2,-1.4 0.1,-2.8 -0.1,-4.3 0,-0.1 0,-0.1 0,-0.1 0,-0.1 0,-0.3 -0.1,-0.4 0,-0.1 -0.1,-0.1 -0.1,-0.2 0,0 0,0 0.1,0 -0.1,-0.3 -0.1,-0.6 -0.2,-0.8 0,0 -0.1,-0.1 -0.1,-0.1 -0.1,-0.2 -0.2,-0.3 -0.3,-0.5 L 59.8,112 c 0,-0.1 -0.1,-0.1 -0.1,-0.1 -0.1,-0.2 -0.2,-0.3 -0.3,-0.4 0,0 -0.1,-0.1 -0.1,-0.1 -1.2,-0.4 -0.6,2.2 -0.5,2.8 0.1,0.8 0.2,1.6 0.3,2.5 0,0.4 0.1,0.9 0,1.3 -0.1,1.4 -1.4,3.3 -1.4,2.9 -0.1,-2.1 -1.6,-4 -2.4,-5.8 -1,-2.1 -1.9,-4.7 -1.7,-7.1 0.2,-2.6 1.7,-5.7 3.8,-7.2 0.7,-0.5 1.4,-0.9 2.2,-1.2 0.1,0 0.1,-0.1 0.1,-0.1 l 0.1,0 c -0.8,0.7 -0.7,2.4 -0.7,3.3 0.1,1.8 0.6,3.6 1.7,5.1 0.7,0.9 1.8,1.7 2.7,2.5 0.3,0.2 0.5,0.5 0.7,0.7 0.1,0.1 0.1,0.1 0.1,0.1 0.7,0.8 1.3,1.7 1.6,2.9 0.1,0.4 1.1,-1.9 0.9,-3.5 -0.2,-1.4 -0.7,-2.7 -1.2,-4 -0.2,-0.5 -1.4,-3.3 -0.1,-3.1 0.2,0.1 0.5,0.2 0.6,0.4 0.5,0.5 0.8,1 1,1.7 0.2,0.6 1,0.7 1.4,0.3 0.1,-0.1 0.2,-0.2 0.2,-0.3 0.5,-0.6 0.7,-1.3 0.9,-2 0.2,-0.9 0.2,-1.7 0,-2.6 -0.1,-0.4 -0.2,-0.8 -0.4,-1.2 0.2,0.1 0.5,0.2 0.7,0.3 0.2,0.1 0.3,0.2 0.5,0.3 3.8,2.7 4.5,6.8 3.8,10.7 z"
               id="path3970"
               inkscape:connector-curvature="0" />
          </g>
        </g>
      </g>
    </g>
  </g>
</svg>
